
		<svg xmlns="http://www.w3.org/2000/svg" xmlns:xlink="http://www.w3.org/1999/xlink" version="1.1" width="3190.4761904761904" height="666.6666666666667">
			
			<g transform="scale(9.523809523809524) translate(10, 10)">
				<defs id="SvgjsDefs1021"><linearGradient id="SvgjsLinearGradient1024"><stop id="SvgjsStop1025" stop-color="#6d7cff" offset="0"/><stop id="SvgjsStop1026" stop-color="#ff51ff" offset="1"/></linearGradient></defs><g id="main_text" rel="mainfill" name="main_text" feature="main_text" xmlns:name="mainText_mainfill" groupName="main_text" fill="#fff364" transform="translate(60.45189536819816, -5.809520737829317) scale(2.1234204421243885)"><path d="M4.42 21.04 l5.74 0 l0 2.96 l-6.14 0 l-2.82 0 l0 -14 l3.22 0 l5.56 0 l0 2.96 l-5.56 0 l0 2.54 l4.16 0 l0 2.9 l-4.16 0 l0 2.64 z M24.880000000000003 24 l-3.8 0 l-2.78 -4.18 l-2.74 4.18 l-3.8 0 l4.62 -7.04 l-4.62 -6.96 l3.8 0 l2.72 4.08 l2.68 -4.08 l3.8 0 l-4.58 6.96 z M36.4 10 l0 2.96 l-3.4 0 l0 11.04 l-3.22 0 l0 -11.04 l-3.4 0 l0 -2.96 l10.02 0 z M46.2 24 l-2.86 -4.58 l-1.72 0 l0 4.58 l-3.22 0 l0 -14 l4.98 0 c3.14 0 5.22 1.9 5.22 4.82 c0 1.86 -0.88 3.26 -2.36 3.98 l3.36 5.2 l-3.4 0 z M41.620000000000005 12.96 l0 3.72 l1.56 0 c1.3 0 2.2 -0.46 2.2 -1.86 c0 -1.38 -0.9 -1.86 -2.2 -1.86 l-1.56 0 z M62.56 24 l-0.98 -2.32 l-6.58 0 l-0.98 2.32 l-3.42 0 l6.22 -14 l2.94 0 l6.22 14 l-3.42 0 z M56.120000000000005 19.06 l4.36 0 l-2.18 -5.16 z M79.39999999999999 22.5 c-1.26 1.12 -2.9 1.7 -4.8 1.7 c-3.96 0 -7.32 -2.94 -7.32 -7.2 s3.36 -7.2 7.32 -7.2 c1.88 0 3.5 0.6 4.72 1.66 l-1.94 2.18 c-0.7 -0.48 -1.64 -0.82 -2.58 -0.82 c-2.46 0 -4.16 1.76 -4.16 4.18 s1.7 4.18 4.16 4.18 c0.98 0 1.98 -0.38 2.68 -0.94 z M90.91999999999999 10 l0 2.96 l-3.4 0 l0 11.04 l-3.22 0 l0 -11.04 l-3.4 0 l0 -2.96 l10.02 0 z M104.08 24 l-0.98 -2.32 l-6.58 0 l-0.98 2.32 l-3.42 0 l6.22 -14 l2.94 0 l6.22 14 l-3.42 0 z M97.64 19.06 l4.36 0 l-2.18 -5.16 z M117.06 16.22 c1.4 0.4 2.84 1.66 2.84 3.66 c0 2.56 -1.6 4.12 -5.1 4.12 l-5.7 0 l0 -14 l5.32 0 c2.94 0 4.42 1.66 4.42 3.54 c0 1.54 -1 2.32 -1.78 2.68 z M114.12 12.8 l-1.8 0 l0 2.5 l1.8 0 c1.14 0 1.52 -0.52 1.52 -1.26 c0 -0.8 -0.48 -1.24 -1.52 -1.24 z M114.62 21.2 c1.42 0 2.06 -0.6 2.06 -1.74 c0 -0.96 -0.64 -1.58 -2.22 -1.58 l-2.14 0 l0 3.32 l2.3 0 z"/></g><g id="SvgjsG1023" rel="mainfill" name="symbol" feature="symbol" xmlns:name="symbol_mainfill" fill="url(#SvgjsLinearGradient1024)" transform="translate(8.674185486889751, 7.421823825984232) scale(0.7156352348031537)"><path d="M57.25,5H7.75c-2.481,0-4.5,2.019-4.5,4.5v46c0,2.48,2.019,4.5,4.5,4.5h49.5c2.48,0,4.5-2.02,4.5-4.5v-46  C61.75,7.019,59.73,5,57.25,5z M14.5,57H7.75c-0.827,0-1.5-0.673-1.5-1.5v-46c0-0.827,0.673-1.5,1.5-1.5h2v21.5  c0,2.481,2.019,4.5,4.5,4.5h0.25V57z M31,57H17.5V34h0.25c2.481,0,4.5-2.019,4.5-4.5V8h4v21.5c0,2.481,2.019,4.5,4.5,4.5H31V57z   M47.5,57H34V34h0.25c2.48,0,4.5-2.019,4.5-4.5V8h4v21.5c0,2.481,2.02,4.5,4.5,4.5h0.25V57z M58.75,55.5c0,0.827-0.673,1.5-1.5,1.5  H50.5V34h0.25c2.48,0,4.5-2.019,4.5-4.5V8h2c0.827,0,1.5,0.673,1.5,1.5V55.5z"/></g>
			</g>
		</svg>
	